<svg id="Livello_1" data-name="Livello 1" xmlns="http://www.w3.org/2000/svg" viewBox="0 0 707.3 270.98">
  <defs>
    <style>
      .cls-1 {
        fill: #35b729;
      }
    </style>
  </defs>
  <g>
    <path class="cls-1" d="M246.15,401.66a13.23,13.23,0,0,1-14.56,0l-98.93-71.9c-4-2.91-7.28-9.34-7.28-14.29V219.69c0-4.95,3.3-11.35,7.33-14.22L231.54,135a13.5,13.5,0,0,1,14.65,0L345,205.47c4,2.87,7.33,9.27,7.33,14.22v95.78c0,4.95-3.27,11.38-7.28,14.29ZM135.5,310.31c0,4.95,3.28,11.38,7.28,14.29l88.81,64.55a13.23,13.23,0,0,0,14.56,0L335,324.6c4-2.91,7.28-9.34,7.28-14.29v-85.4c0-4.95-3.3-11.35-7.33-14.23l-88.71-63.23a13.5,13.5,0,0,0-14.65,0l-88.71,63.23c-4,2.88-7.33,9.28-7.33,14.23Z" transform="translate(-125.38 -132.86)"/>
    <polygon class="cls-1" points="219.94 87.35 213.75 78.75 113.49 150.91 13.22 78.75 7.03 87.35 108.19 160.15 108.19 261.58 118.78 261.58 118.78 160.15 219.94 87.35"/>
  </g>
  <g>
    <path d="M423.55,280H401.19L398,287.14h-8L412.15,239h.44l22.21,48.19h-8Zm-2.88-6.36-8.29-18.45-8.32,18.45Z" transform="translate(-125.38 -132.86)"/>
    <path d="M475.28,239.91v47.23h-7.41V267.19H447.42v19.95H440V239.91h7.38v19.92h20.45V239.91Z" transform="translate(-125.38 -132.86)"/>
    <path d="M522.16,263.58c0,14.51-9.35,23.56-24.35,23.56H484.37V239.91h13.44C512.81,239.88,522.16,249,522.16,263.58Zm-7.5,0c0-10-6.5-16.28-16.88-16.28h-6v32.49h6.12C508.18,279.76,514.66,273.52,514.66,263.55Z" transform="translate(-125.38 -132.86)"/>
    <path d="M544.28,263.55a24.67,24.67,0,0,1,24.37-24.46,23.9,23.9,0,0,1,16.41,7.21l-4.31,5.83a17.54,17.54,0,0,0-12.24-5.51,16.92,16.92,0,0,0,0,33.84c4.83,0,9-2.4,12.24-5.63l4.28,6c-4.07,4-9.26,7.09-16.29,7.09A24.58,24.58,0,0,1,544.28,263.55Z" transform="translate(-125.38 -132.86)"/>
    <path d="M616.91,287.14l-12.72-18.28h-5.8v18.28H591l0-47.23h14.68c8.79,0,16,6.77,16,15.18a13.82,13.82,0,0,1-9.34,13.15L626,287.14ZM605.8,262.71a8.09,8.09,0,0,0,8.18-7.8c0-4.39-3.78-7.64-8.18-7.64h-7.44v15.44Z" transform="translate(-125.38 -132.86)"/>
    <path d="M638.41,247.21v12.1h17.87v7.38H638.41v13.07h20.71v7.38H631V239.91h28.12v7.3Z" transform="translate(-125.38 -132.86)"/>
    <path d="M696.56,280H674.21L671,287.14h-8L685.17,239h.44l22.2,48.19h-8Zm-2.87-6.36-8.29-18.45-8.32,18.45Z" transform="translate(-125.38 -132.86)"/>
    <path d="M736.79,247.27H724.13v39.87h-7.44V247.27H704v-7.36h32.76Z" transform="translate(-125.38 -132.86)"/>
    <path d="M742.68,239.91h7.41v47.23h-7.41Z" transform="translate(-125.38 -132.86)"/>
    <path d="M799.31,239.91l-21.8,48.2H777l-21.71-48.2h7.88l14.07,32,14.12-32Z" transform="translate(-125.38 -132.86)"/>
    <path d="M812,247.21v12.1h17.87v7.38H812v13.07h20.72v7.38H804.55V239.91h28.13v7.3Z" transform="translate(-125.38 -132.86)"/>
  </g>
</svg>
