<svg width="20" height="20" viewBox="0 0 16 16" fill="initial" stroke="none" xmlns="http://www.w3.org/2000/svg" class="treeicon" role="presentation"><path fill-rule="evenodd" clip-rule="evenodd" d="M4.83183 2.46663C3.91909 2.79261 3 3.40757 3 4.5V11C3 12.272 3.82099 13.0387 4.80304 13.4596C5.76871 13.8734 6.97221 14 8 14C9.02779 14 10.2313 13.8734 11.197 13.4596C12.179 13.0387 13 12.272 13 11V4.5C13 3.38411 12.0866 2.76764 11.165 2.44551C10.2142 2.11318 9.0255 2 8 2C6.96956 2 5.78135 2.12752 4.83183 2.46663ZM5.16817 3.40837C4.33091 3.70739 4 4.09243 4 4.5C4 4.93741 4.33658 5.32094 5.16498 5.61049C5.96417 5.88983 7.0255 6 8 6C8.9745 6 10.0358 5.88983 10.835 5.61049C11.6634 5.32094 12 4.93741 12 4.5C12 4.06259 11.6634 3.67906 10.835 3.38951C10.0358 3.11017 8.9745 3 8 3C7.03044 3 5.96865 3.12248 5.16817 3.40837ZM4 11C4 11.728 4.42901 12.2113 5.19696 12.5404C5.98129 12.8766 7.02779 13 8 13C8.97221 13 10.0187 12.8766 10.803 12.5404C11.571 12.2113 12 11.728 12 11V6.15934C11.741 6.32407 11.4534 6.45369 11.165 6.55449C10.2142 6.88682 9.0255 7 8 7C6.9745 7 5.78583 6.88682 4.83502 6.55449C4.54664 6.45369 4.25905 6.32407 4 6.15934V11Z"></path></svg>