<svg width="20" height="20" viewBox="0 0 16 16" fill="black" stroke="none" xmlns="http://www.w3.org/2000/svg" class="de df dg            ch e5 e6 bn di" role="presentation"><path fill-rule="evenodd" clip-rule="evenodd" d="M2 5C2 3.89543 2.89543 3 4 3H12C13.1046 3 14 3.89543 14 5C14 6.10457 13.1046 7 12 7H5V9.5C5 9.77614 5.22386 10 5.5 10H7.26756C7.61337 9.4022 8.25972 9 9 9H12C13.1046 9 14 9.89543 14 11C14 12.1046 13.1046 13 12 13H9C7.89543 13 7 12.1046 7 11H5.5C4.67157 11 4 10.3284 4 9.5L4 7C2.89543 7 2 6.10457 2 5ZM4 6H12C12.5523 6 13 5.55228 13 5C13 4.44772 12.5523 4 12 4H4C3.44772 4 3 4.44772 3 5C3 5.55228 3.44772 6 4 6ZM9 10C8.44772 10 8 10.4477 8 11C8 11.5523 8.44772 12 9 12H12C12.5523 12 13 11.5523 13 11C13 10.4477 12.5523 10 12 10H9Z"></path></svg>