<svg width="20" height="20" viewBox="0 0 16 16" fill="black" stroke="none" xmlns="http://www.w3.org/2000/svg" class="de df dg            ch e5 e6 bn di" role="presentation"><path fill-rule="evenodd" clip-rule="evenodd" d="M4.5 2C3.11929 2 2 3.11929 2 4.5V10.5C2 11.8807 3.11929 13 4.5 13H12.5C13.8807 13 15 11.8807 15 10.5V4.5C15 3.11929 13.8807 2 12.5 2H4.5ZM3 4.5C3 3.67157 3.67157 3 4.5 3H12.5C13.3284 3 14 3.67157 14 4.5V5H3V4.5ZM3 6V10.5C3 11.3284 3.67157 12 4.5 12H12.5C13.3284 12 14 11.3284 14 10.5V6H3Z"></path></svg>