<svg width="20" height="20" viewBox="0 0 16 16" fill="black" stroke="none" xmlns="http://www.w3.org/2000/svg" class="de df dg            ch e5 e6 bn di" role="presentation"><path fill-rule="evenodd" clip-rule="evenodd" d="M1 4.5C1 3.11929 2.11929 2 3.5 2H9.5C10.8807 2 12 3.11929 12 4.5V5H12.5C13.8807 5 15 6.11929 15 7.5V11.5C15 12.8807 13.8807 14 12.5 14H6.5C5.11929 14 4 12.8807 4 11.5V11H3.5C2.11929 11 1 9.88071 1 8.5V4.5ZM14 8V7.5C14 6.67157 13.3284 6 12.5 6H6.5C5.67157 6 5 6.67157 5 7.5V8H14ZM5 9V11.5C5 12.3284 5.67157 13 6.5 13H12.5C13.3284 13 14 12.3284 14 11.5V9H5ZM11 4.5V5H6.5C5.11929 5 4 6.11929 4 7.5V10H3.5C2.67157 10 2 9.32843 2 8.5V4.5C2 3.67157 2.67157 3 3.5 3H9.5C10.3284 3 11 3.67157 11 4.5Z"></path></svg>